<svg width="22" height="21" viewBox="0 0 22 21" fill="none" xmlns="http://www.w3.org/2000/svg">
<g clip-path="url(#clip0_5_37)">
<path d="M9.19619 11.4487C9.55915 11.9462 10.0222 12.3579 10.554 12.6559C11.0857 12.9538 11.6738 13.131 12.2782 13.1753C12.8826 13.2197 13.4892 13.1303 14.057 12.9131C14.6247 12.696 15.1403 12.3561 15.5687 11.9167L18.1041 9.31665C18.8739 8.49938 19.2998 7.40477 19.2902 6.26858C19.2805 5.13239 18.8361 4.04554 18.0526 3.2421C17.2691 2.43867 16.2093 1.98294 15.1013 1.97306C13.9933 1.96319 12.9259 2.39997 12.1289 3.18932L10.6752 4.67132M12.5768 9.71532C12.2139 9.21774 11.7508 8.80603 11.219 8.5081C10.6873 8.21018 10.0992 8.03302 9.49483 7.98863C8.89042 7.94424 8.28378 8.03367 7.71604 8.25084C7.1483 8.46802 6.63275 8.80786 6.20435 9.24732L3.66889 11.8473C2.89913 12.6646 2.4732 13.7592 2.48283 14.8954C2.49245 16.0316 2.93687 17.1184 3.72037 17.9219C4.50386 18.7253 5.56373 19.181 6.67171 19.1909C7.7797 19.2008 8.84714 18.764 9.64412 17.9747L11.0893 16.4927" stroke="#1E1E1E" stroke-width="2" stroke-linecap="round" stroke-linejoin="round"/>
</g>
<defs>
<clipPath id="clip0_5_37">
<rect width="20.2837" height="20.8" fill="white" transform="translate(0.744629 0.181885)"/>
</clipPath>
</defs>
</svg>
